P3
16 1 255
0 0 0
255 255 255
170 170 170
0 0 170
0 0 255
0 170 255
0 255 255
0 170 0
0 255 0
170 255 85
170 85 0
255 170 0
255 255 0
170 0 170
255 0 255
255 0 0
